<mxfile host="app.diagrams.net" modified="2023-10-04T15:36:24.447Z" agent="Mozilla/5.0 (X11; Linux x86_64; rv:109.0) Gecko/20100101 Firefox/114.0" version="22.0.0" etag="H6GaSChVwkeeOJrfWb-X" type="github">
  <diagram name="PÃ¡gina-1" id="8ZlPfPFB5Aspc4ZgxXsN">
    <mxGraphModel>
      <root>
        <mxCell id="0" />
        <mxCell id="1" parent="0" />
      </root>
    </mxGraphModel>
  </diagram>
</mxfile>
